<mxfile host="app.diagrams.net" agent="Mozilla/5.0 (X11; Ubuntu; Linux x86_64; rv:141.0) Gecko/20100101 Firefox/141.0" version="28.1.0">
  <diagram name="Strona-1" id="aES41IwsONTO-E5nXfPD">
    <mxGraphModel dx="1301" dy="771" grid="1" gridSize="10" guides="1" tooltips="1" connect="1" arrows="1" fold="1" page="1" pageScale="1" pageWidth="827" pageHeight="1169" math="0" shadow="0">
      <root>
        <mxCell id="0" />
        <mxCell id="1" parent="0" />
        <mxCell id="A0_-gni38jgJT02VdXeb-32" value="" style="rounded=0;whiteSpace=wrap;html=1;strokeColor=none;" vertex="1" parent="1">
          <mxGeometry x="10" y="90" width="760" height="610" as="geometry" />
        </mxCell>
        <mxCell id="A0_-gni38jgJT02VdXeb-6" value="" style="html=1;whiteSpace=wrap;" vertex="1" parent="1">
          <mxGeometry x="190" y="150" width="430" height="480" as="geometry" />
        </mxCell>
        <mxCell id="A0_-gni38jgJT02VdXeb-7" value="&lt;b&gt;Meal Planner&lt;/b&gt;" style="text;strokeColor=none;align=center;fillColor=none;html=1;verticalAlign=middle;whiteSpace=wrap;rounded=0;" vertex="1" parent="1">
          <mxGeometry x="361" y="160" width="106" height="30" as="geometry" />
        </mxCell>
        <mxCell id="A0_-gni38jgJT02VdXeb-8" value="User" style="shape=umlActor;verticalLabelPosition=bottom;verticalAlign=top;html=1;" vertex="1" parent="1">
          <mxGeometry x="70" y="330" width="30" height="60" as="geometry" />
        </mxCell>
        <mxCell id="A0_-gni38jgJT02VdXeb-9" value="Add a recipe" style="ellipse;whiteSpace=wrap;html=1;" vertex="1" parent="1">
          <mxGeometry x="220" y="191" width="120" height="60" as="geometry" />
        </mxCell>
        <mxCell id="A0_-gni38jgJT02VdXeb-10" value="Browse recipes" style="ellipse;whiteSpace=wrap;html=1;" vertex="1" parent="1">
          <mxGeometry x="220" y="260" width="120" height="60" as="geometry" />
        </mxCell>
        <mxCell id="A0_-gni38jgJT02VdXeb-12" value="Edit a recipe" style="ellipse;whiteSpace=wrap;html=1;" vertex="1" parent="1">
          <mxGeometry x="440" y="190" width="120" height="60" as="geometry" />
        </mxCell>
        <mxCell id="A0_-gni38jgJT02VdXeb-13" value="Delete a recipe" style="ellipse;whiteSpace=wrap;html=1;" vertex="1" parent="1">
          <mxGeometry x="440" y="280" width="120" height="60" as="geometry" />
        </mxCell>
        <mxCell id="A0_-gni38jgJT02VdXeb-14" value="&amp;lt;&amp;lt;extend&amp;gt;&amp;gt;" style="endArrow=open;endSize=12;dashed=1;html=1;rounded=0;entryX=1;entryY=0;entryDx=0;entryDy=0;exitX=0;exitY=0.5;exitDx=0;exitDy=0;" edge="1" parent="1" source="A0_-gni38jgJT02VdXeb-12" target="A0_-gni38jgJT02VdXeb-10">
          <mxGeometry width="160" relative="1" as="geometry">
            <mxPoint x="370" y="241.33" as="sourcePoint" />
            <mxPoint x="230" y="259.99666666666656" as="targetPoint" />
          </mxGeometry>
        </mxCell>
        <mxCell id="A0_-gni38jgJT02VdXeb-15" value="&amp;lt;&amp;lt;extend&amp;gt;&amp;gt;" style="endArrow=open;endSize=12;dashed=1;html=1;rounded=0;exitX=0;exitY=0.5;exitDx=0;exitDy=0;entryX=1;entryY=0.5;entryDx=0;entryDy=0;" edge="1" parent="1" target="A0_-gni38jgJT02VdXeb-10">
          <mxGeometry width="160" relative="1" as="geometry">
            <mxPoint x="440" y="310" as="sourcePoint" />
            <mxPoint x="322" y="359" as="targetPoint" />
          </mxGeometry>
        </mxCell>
        <mxCell id="A0_-gni38jgJT02VdXeb-16" value="Search a recipe" style="ellipse;whiteSpace=wrap;html=1;" vertex="1" parent="1">
          <mxGeometry x="220" y="360" width="120" height="60" as="geometry" />
        </mxCell>
        <mxCell id="A0_-gni38jgJT02VdXeb-17" value="&amp;lt;&amp;lt;include&amp;gt;&amp;gt;" style="endArrow=open;endSize=12;dashed=1;html=1;rounded=0;entryX=0.5;entryY=1;entryDx=0;entryDy=0;" edge="1" parent="1" source="A0_-gni38jgJT02VdXeb-16" target="A0_-gni38jgJT02VdXeb-10">
          <mxGeometry width="160" relative="1" as="geometry">
            <mxPoint x="380" y="350" as="sourcePoint" />
            <mxPoint x="280" y="330" as="targetPoint" />
          </mxGeometry>
        </mxCell>
        <mxCell id="A0_-gni38jgJT02VdXeb-18" value="Add a recipe to your weekly plan" style="ellipse;whiteSpace=wrap;html=1;" vertex="1" parent="1">
          <mxGeometry x="400" y="370" width="120" height="60" as="geometry" />
        </mxCell>
        <mxCell id="A0_-gni38jgJT02VdXeb-19" value="&amp;lt;&amp;lt;extend&amp;gt;&amp;gt;" style="endArrow=open;endSize=12;dashed=1;html=1;rounded=0;exitX=0;exitY=0;exitDx=0;exitDy=0;entryX=1;entryY=1;entryDx=0;entryDy=0;" edge="1" parent="1" source="A0_-gni38jgJT02VdXeb-18" target="A0_-gni38jgJT02VdXeb-10">
          <mxGeometry width="160" relative="1" as="geometry">
            <mxPoint x="420" y="330" as="sourcePoint" />
            <mxPoint x="320" y="310" as="targetPoint" />
          </mxGeometry>
        </mxCell>
        <mxCell id="A0_-gni38jgJT02VdXeb-20" value="Browse the weekly plan" style="ellipse;whiteSpace=wrap;html=1;" vertex="1" parent="1">
          <mxGeometry x="220" y="440" width="120" height="60" as="geometry" />
        </mxCell>
        <mxCell id="A0_-gni38jgJT02VdXeb-21" value="&amp;lt;&amp;lt;extend&amp;gt;&amp;gt;" style="endArrow=open;endSize=12;dashed=1;html=1;rounded=0;exitX=0;exitY=1;exitDx=0;exitDy=0;entryX=1;entryY=0;entryDx=0;entryDy=0;" edge="1" parent="1" source="A0_-gni38jgJT02VdXeb-18" target="A0_-gni38jgJT02VdXeb-20">
          <mxGeometry width="160" relative="1" as="geometry">
            <mxPoint x="438" y="539" as="sourcePoint" />
            <mxPoint x="340" y="470" as="targetPoint" />
          </mxGeometry>
        </mxCell>
        <mxCell id="A0_-gni38jgJT02VdXeb-22" value="Generate a shopping list" style="ellipse;whiteSpace=wrap;html=1;" vertex="1" parent="1">
          <mxGeometry x="450" y="460" width="120" height="60" as="geometry" />
        </mxCell>
        <mxCell id="A0_-gni38jgJT02VdXeb-24" value="Print weekly plan" style="ellipse;whiteSpace=wrap;html=1;" vertex="1" parent="1">
          <mxGeometry x="400" y="530" width="120" height="60" as="geometry" />
        </mxCell>
        <mxCell id="A0_-gni38jgJT02VdXeb-26" value="" style="endArrow=none;html=1;rounded=0;" edge="1" parent="1">
          <mxGeometry width="50" height="50" relative="1" as="geometry">
            <mxPoint x="110" y="350" as="sourcePoint" />
            <mxPoint x="220" y="230" as="targetPoint" />
          </mxGeometry>
        </mxCell>
        <mxCell id="A0_-gni38jgJT02VdXeb-27" value="" style="endArrow=none;html=1;rounded=0;entryX=0;entryY=0.5;entryDx=0;entryDy=0;" edge="1" parent="1" target="A0_-gni38jgJT02VdXeb-10">
          <mxGeometry width="50" height="50" relative="1" as="geometry">
            <mxPoint x="110" y="350" as="sourcePoint" />
            <mxPoint x="230" y="390" as="targetPoint" />
          </mxGeometry>
        </mxCell>
        <mxCell id="A0_-gni38jgJT02VdXeb-28" value="" style="endArrow=none;html=1;rounded=0;entryX=0;entryY=0.5;entryDx=0;entryDy=0;" edge="1" parent="1" target="A0_-gni38jgJT02VdXeb-16">
          <mxGeometry width="50" height="50" relative="1" as="geometry">
            <mxPoint x="110" y="350" as="sourcePoint" />
            <mxPoint x="260" y="340" as="targetPoint" />
          </mxGeometry>
        </mxCell>
        <mxCell id="A0_-gni38jgJT02VdXeb-29" value="" style="endArrow=none;html=1;rounded=0;entryX=0;entryY=0.5;entryDx=0;entryDy=0;" edge="1" parent="1" target="A0_-gni38jgJT02VdXeb-20">
          <mxGeometry width="50" height="50" relative="1" as="geometry">
            <mxPoint x="110" y="350" as="sourcePoint" />
            <mxPoint x="250" y="430" as="targetPoint" />
          </mxGeometry>
        </mxCell>
        <mxCell id="A0_-gni38jgJT02VdXeb-30" value="&amp;lt;&amp;lt;extend&amp;gt;&amp;gt;" style="endArrow=open;endSize=12;dashed=1;html=1;rounded=0;exitX=0;exitY=0.5;exitDx=0;exitDy=0;" edge="1" parent="1" source="A0_-gni38jgJT02VdXeb-22" target="A0_-gni38jgJT02VdXeb-20">
          <mxGeometry width="160" relative="1" as="geometry">
            <mxPoint x="400" y="490" as="sourcePoint" />
            <mxPoint x="330" y="490" as="targetPoint" />
          </mxGeometry>
        </mxCell>
        <mxCell id="A0_-gni38jgJT02VdXeb-31" value="&amp;lt;&amp;lt;extend&amp;gt;&amp;gt;" style="endArrow=open;endSize=12;dashed=1;html=1;rounded=0;exitX=0;exitY=0.5;exitDx=0;exitDy=0;entryX=0.725;entryY=0.95;entryDx=0;entryDy=0;entryPerimeter=0;" edge="1" parent="1" source="A0_-gni38jgJT02VdXeb-24" target="A0_-gni38jgJT02VdXeb-20">
          <mxGeometry width="160" relative="1" as="geometry">
            <mxPoint x="428" y="500" as="sourcePoint" />
            <mxPoint x="300" y="501" as="targetPoint" />
          </mxGeometry>
        </mxCell>
      </root>
    </mxGraphModel>
  </diagram>
</mxfile>
